<svg width="19" height="12" viewBox="0 0 19 12" fill="none" xmlns="http://www.w3.org/2000/svg">
<path fill-rule="evenodd" clip-rule="evenodd" d="M9.48232 10.0245C8.49561 10.8562 7.21568 11.3583 5.81708 11.3583C2.69635 11.3583 0.166504 8.85857 0.166504 5.77498C0.166504 2.69139 2.69635 0.19165 5.81708 0.19165C7.21568 0.19165 8.49561 0.693732 9.48232 1.52544C10.469 0.693732 11.749 0.19165 13.1476 0.19165C16.2683 0.19165 18.7981 2.69139 18.7981 5.77498C18.7981 8.85857 16.2683 11.3583 13.1476 11.3583C11.749 11.3583 10.469 10.8562 9.48232 10.0245Z" fill="#ED0006"/>
<path fill-rule="evenodd" clip-rule="evenodd" d="M9.48242 10.0245C10.6974 9.00045 11.4678 7.47661 11.4678 5.77498C11.4678 4.07335 10.6974 2.54952 9.48242 1.52543C10.4691 0.693731 11.7491 0.19165 13.1477 0.19165C16.2684 0.19165 18.7982 2.69139 18.7982 5.77498C18.7982 8.85857 16.2684 11.3583 13.1477 11.3583C11.7491 11.3583 10.4691 10.8562 9.48242 10.0245Z" fill="#F9A000"/>
<path fill-rule="evenodd" clip-rule="evenodd" d="M9.48239 10.0246C10.6973 9.00049 11.4677 7.47666 11.4677 5.77504C11.4677 4.07343 10.6973 2.5496 9.48239 1.52551C8.26745 2.5496 7.49707 4.07343 7.49707 5.77504C7.49707 7.47666 8.26745 9.00049 9.48239 10.0246Z" fill="#FF5E00"/>
</svg>
