<svg width="22" height="7" viewBox="0 0 22 7" fill="none" xmlns="http://www.w3.org/2000/svg">
<path d="M8.18486 0.121318L5.3626 6.75992H3.52129L2.13244 1.46201C2.04812 1.13569 1.97481 1.01615 1.71837 0.878668C1.2997 0.654739 0.608307 0.444647 0 0.314253L0.0413172 0.121318H3.00527C3.38308 0.121318 3.72271 0.369266 3.80849 0.798195L4.54198 4.63963L6.35478 0.121207L8.18486 0.121318ZM15.3994 4.59247C15.4069 2.84034 12.942 2.74382 12.9589 1.96112C12.9642 1.72291 13.1942 1.46965 13.6978 1.40501C13.9474 1.37279 14.6351 1.34822 15.4151 1.7021L15.721 0.294328C15.3019 0.144341 14.7626 0 14.0917 0C12.3699 0 11.1582 0.902356 11.148 2.19446C11.1369 3.15016 12.0129 3.68348 12.6728 4.00105C13.3518 4.32626 13.5796 4.53525 13.577 4.82614C13.5722 5.27145 13.0355 5.46804 12.534 5.47579C11.6584 5.48907 11.1504 5.24223 10.7454 5.0566L10.4297 6.51097C10.8367 6.69505 11.5879 6.85567 12.3668 6.86375C14.1968 6.86375 15.3938 5.97257 15.3994 4.59247ZM19.9459 6.75992H21.557L20.1507 0.121318H18.6637C18.3294 0.121318 18.0473 0.313257 17.9225 0.60836L15.3086 6.75992H17.1377L17.5008 5.76835H19.7356L19.9459 6.75992ZM18.0023 4.40773L18.9192 1.91518L19.4469 4.40773H18.0023ZM10.6737 0.121318L9.23329 6.75992H7.49145L8.93239 0.121318H10.6737Z" fill="#1434CB"/>
</svg>
