<svg width="79" height="22" viewBox="0 0 79 22" fill="none" xmlns="http://www.w3.org/2000/svg">
<path d="M69.57 11.0999V13.9599H68.62C67.21 13.9599 66.77 14.3399 66.77 15.6499V19.7899H64.26V13.4999C64.68 13.7399 65.14 13.9099 65.6 13.9099C66.16 13.9099 66.51 13.6799 66.72 13.4899V14.0799H66.9C67.3 11.8799 68.13 11.1099 69.57 11.1099V11.0999ZM5.4 20.0399C3.9 20.0399 3.09 19.2699 2.67 17.4399H2.51V21.5799H0V11.0999H2.51V13.4399H2.67C3.09 11.6099 3.96 10.8599 5.46 10.8599C7.55 10.8599 8.63 12.5599 8.63 15.3799C8.63 18.1999 7.51 20.0299 5.41 20.0299L5.4 20.0399ZM6.15 15.4099C6.15 13.9599 5.6 13.1199 4.34 13.1199C3.19 13.1199 2.51 13.9099 2.51 15.3399V15.4999C2.51 16.9099 3.19 17.7899 4.34 17.7899C5.59 17.7899 6.15 16.9099 6.15 15.4099ZM12.35 10.8699C13.85 10.8499 14.68 11.6199 15.1 13.4699H15.26V11.1099H17.75V19.7899H15.26V17.4499H15.08C14.66 19.2799 13.79 20.0499 12.31 20.0499C10.2 20.0499 9.12 18.3299 9.12 15.5099C9.12 12.6899 10.26 10.8599 12.34 10.8799L12.35 10.8699ZM15.26 15.5599V15.3999C15.26 13.9899 14.56 13.1099 13.43 13.1099C12.17 13.1099 11.6 14.0099 11.6 15.5099C11.6 17.0099 12.15 17.7999 13.43 17.7999C14.57 17.7999 15.26 16.9899 15.26 15.5699V15.5599ZM26.61 18.2199V11.0999H24.12V15.0699C24.12 16.0799 23.53 16.6599 22.53 16.6599C21.53 16.6599 21.08 15.9599 21.08 15.0699V11.0999H18.57V15.7799C18.57 17.6699 19.38 18.9099 21.26 18.9099C22.65 18.9099 23.58 18.2099 23.99 16.2399H24.12V18.2499C24.12 19.2399 23.75 19.9499 22.32 19.9499C20.89 19.9499 19.72 19.4099 19.23 19.0999L18.28 21.0999C18.93 21.4299 20.5 21.9999 22.38 21.9999C25 21.9999 26.61 20.7199 26.61 18.2099V18.2199ZM78.3 18.2199V11.0999H75.81V15.0699C75.81 16.0799 75.22 16.6599 74.22 16.6599C73.22 16.6599 72.77 15.9599 72.77 15.0699V11.0999H70.26V15.7799C70.26 17.6699 71.07 18.9099 72.95 18.9099C74.34 18.9099 75.27 18.2099 75.68 16.2399H75.81V18.2499C75.81 19.2399 75.44 19.9499 74.01 19.9499C72.58 19.9499 71.41 19.4099 70.92 19.0999L69.97 21.0999C70.62 21.4299 72.19 21.9999 74.07 21.9999C76.69 21.9999 78.3 20.7199 78.3 18.2099V18.2199ZM39.43 19.7899H36.92V8.79993H39.43V13.5499H39.57C39.97 11.5499 40.89 10.8799 42.29 10.8799C44.18 10.8799 44.96 12.1299 44.96 13.9899V19.7999H42.47V14.7099C42.47 13.8099 42.07 13.1299 41.02 13.1299C39.97 13.1299 39.43 13.7199 39.43 14.7099V19.7999V19.7899ZM45.58 15.6299C45.58 12.6299 47.25 10.8699 50.07 10.8699C52.74 10.8699 54.05 12.5699 54.05 14.9399C54.05 15.3199 54.05 15.6199 54.01 16.0899H48.07C48.23 17.3399 48.89 17.8899 50.07 17.8899C51.25 17.8899 51.61 17.3199 51.81 16.6399L53.97 17.2399C53.55 18.8199 52.41 20.0199 50.03 20.0199C47.41 20.0199 45.58 18.5199 45.58 15.6199V15.6299ZM48.09 14.6799H51.75C51.68 13.5299 51.11 12.9399 49.99 12.9399C48.87 12.9399 48.25 13.4499 48.08 14.6799H48.09ZM54.61 15.4499C54.61 12.5599 56.37 10.8699 59.12 10.8699C61.87 10.8699 63.61 12.5599 63.61 15.4499C63.61 18.3399 61.91 20.0499 59.12 20.0499C56.33 20.0499 54.61 18.3099 54.61 15.4499ZM57.12 15.4299C57.12 16.8399 57.82 17.7599 59.1 17.7599C60.38 17.7599 61.12 16.8399 61.12 15.4299C61.12 14.0199 60.39 13.1399 59.12 13.1399C57.85 13.1399 57.12 14.0399 57.12 15.4299ZM36.05 19.7599C35.46 19.9399 35.02 20.0499 34.13 20.0499C32.11 20.0499 31.27 18.7099 31.27 17.0599V13.1899H30.26V11.0999H31.27V9.16993H33.76V11.0999H36.05V13.1899H33.76V16.5799C33.76 17.2799 34.02 17.6099 34.77 17.6099C35.15 17.6099 35.59 17.4799 35.91 17.4099L36.06 19.7599H36.05ZM60.26 5.51993C60.26 3.85993 61.41 2.79993 63.34 1.76993C65.1 0.829932 66.92 0.429932 68.7 0.429932C72.63 0.429932 73.72 2.61993 73.72 4.72993C73.72 7.01993 72.57 8.80993 70.29 9.45993C68.84 9.87993 67.02 10.2099 66.86 11.5999C66.71 12.8499 66.24 13.2999 65.6 13.2999C63.67 13.2999 60.27 8.95993 60.27 5.50993L60.26 5.51993ZM65.16 11.0699C65.48 11.0699 65.51 10.7299 65.54 10.2799C65.6 9.11993 65.87 8.72993 67.29 8.03993C68.5 7.44993 69.35 6.47993 69.35 5.57993C69.35 4.67993 68.88 3.75993 67.55 3.75993C66.63 3.75993 65.72 4.02993 64.7 4.51993C63.6 5.03993 62.95 5.61993 62.95 6.51993C62.95 8.34993 64.53 11.0799 65.16 11.0799V11.0699ZM2.27 1.62993H3.98C5.3 1.62993 5.86 2.11993 5.86 3.15993C5.86 4.19993 5.14 4.83993 3.83 4.83993H3.2V6.46993H2.26V1.62993H2.27ZM3.82 4.10993C4.58 4.10993 4.9 3.77993 4.9 3.24993C4.9 2.57993 4.66 2.36993 3.8 2.36993H3.21V4.10993H3.82ZM7.38 4.04993C7.38 2.43993 8.27 1.52993 9.82 1.52993C11.37 1.52993 12.18 2.43993 12.18 4.04993C12.18 5.65993 11.27 6.56993 9.73 6.56993C8.19 6.56993 7.38 5.67993 7.38 4.04993ZM11.19 4.04993V4.02993C11.19 2.83993 10.69 2.29993 9.78 2.29993C8.87 2.29993 8.34 2.82993 8.34 4.02993V4.04993C8.34 5.23993 8.84 5.79993 9.76 5.79993C10.68 5.79993 11.18 5.26993 11.18 4.04993H11.19ZM13.54 1.62993H14.55L15.25 4.64993L15.42 5.75993H15.46L15.63 4.64993L16.44 1.62993H17.42L18.21 4.64993L18.38 5.75993H18.42L18.59 4.64993L19.29 1.62993H20.28L18.89 6.47993H17.88L17.07 3.32993L16.93 2.36993H16.88L16.74 3.32993L15.94 6.47993H14.95L13.54 1.62993ZM21.98 1.62993H25.4V2.44993H22.9V3.56993H24.63V4.36993H22.9V5.65993H25.49V6.45993H21.98V1.62993ZM27.38 1.62993H29.21C30.56 1.62993 31.04 2.14993 31.04 2.92993C31.04 3.38993 30.83 3.93993 29.93 4.14993C30.71 4.29993 31.12 4.94993 31.18 6.15993C31.2 6.37993 31.2 6.42993 31.2 6.47993H30.23C30.23 6.47993 30.23 6.38993 30.21 6.22993C30.15 5.08993 29.85 4.62993 28.94 4.62993H28.3V6.47993H27.37V1.62993H27.38ZM29.02 3.90993C29.84 3.90993 30.08 3.51993 30.08 3.05993C30.08 2.59993 29.88 2.36993 29.01 2.36993H28.31V3.90993H29.02ZM33.19 1.62993H36.61V2.44993H34.11V3.56993H35.84V4.36993H34.11V5.65993H36.7V6.45993H33.19V1.62993ZM38.59 1.62993H40.32C41.92 1.62993 42.79 2.39993 42.79 4.05993C42.79 5.71993 41.87 6.46993 40.22 6.46993H38.59V1.62993ZM40.26 5.67993C41.34 5.67993 41.79 5.17993 41.79 4.06993V4.01993C41.79 2.85993 41.31 2.39993 40.29 2.39993H39.52V5.66993H40.26V5.67993ZM47.43 1.62993H49.17C50.47 1.62993 51.13 1.93993 51.13 2.86993C51.13 3.43993 50.8 3.68993 50.19 3.83993C50.93 3.99993 51.37 4.40993 51.37 5.10993C51.37 6.05993 50.63 6.46993 49.35 6.46993H47.43V1.62993ZM49.36 3.64993C49.84 3.64993 50.18 3.40993 50.18 2.97993C50.18 2.54993 49.92 2.38993 49.11 2.38993H48.34V3.64993H49.35H49.36ZM49.34 5.71993C50.04 5.71993 50.38 5.62993 50.38 5.11993C50.38 4.66993 50.15 4.30993 49.16 4.30993H48.34V5.71993H49.34ZM54.39 4.59993L52.63 1.62993H53.71L54.42 2.84993L54.83 3.97993H54.9L55.32 2.84993L56.01 1.62993H57.11L55.35 4.59993V6.46993H54.39V4.59993Z" fill="#1B1B1B"/>
</svg>
